<svg width="79" height="79" viewBox="0 0 79 79" fill="none" xmlns="http://www.w3.org/2000/svg">
<path d="M28.5931 23.3126C29.5613 18.8403 28.8697 14.5205 26.6638 10.4663C26.3964 10.0011 26.0388 9.44214 25.4 9.1539L24.7188 9.15932C24.1049 9.49731 23.7494 9.80341 23.6133 10.1873C23.4772 10.5712 23.5959 11.1072 23.9889 11.7405C24.327 12.3543 24.6103 12.9486 24.8936 13.5429C24.9999 13.7658 24.9381 14.1143 24.7506 14.2948C22.8916 16.2287 20.9584 18.1979 19.0994 20.1318L18.9119 20.3123C17.8418 21.4145 16.7717 22.5168 15.7016 23.6191C15.0454 24.2508 14.5308 25.1796 13.4885 24.8101C12.3365 24.4016 10.4888 22.8204 9.55684 24.4039C9.36587 24.7683 9.30406 25.1168 9.40682 25.5237C9.50958 25.9306 9.8158 26.2861 10.2158 26.5514C13.603 28.4932 17.234 29.2249 21.015 28.8368C21.6608 28.7571 22.3066 28.6774 22.917 28.5234C23.1947 28.4366 23.5079 28.4242 23.8405 28.3569L24.044 28.3056L24.0211 28.5444C22.6786 35.2917 24.3561 41.0106 29.0022 45.4978C33.6484 49.985 39.3993 51.5301 46.1649 50.0394L46.3684 49.9881L46.326 50.2818C46.3066 50.3366 46.2871 50.3914 46.2677 50.4463C45.2996 54.9186 45.9716 59.2932 48.1971 63.2926C48.5901 63.9258 49.1088 64.7271 49.9032 64.5766C51.0656 64.4331 51.5677 63.1912 51.0525 62.2059C50.6789 61.5178 50.3248 60.7749 49.9706 60.032C49.9352 59.9577 49.9387 59.7737 49.9422 59.5897C49.9811 59.48 50.02 59.3703 50.0943 59.3349C53.5115 55.7928 56.9287 52.2506 60.3071 48.8181C60.4751 48.6925 60.8078 48.6252 61.0272 48.703C61.7209 49.0107 62.3597 49.2989 62.9437 49.5677C63.5631 49.9108 64.37 50.0734 64.8776 49.5125C65.272 49.0967 65.6061 47.9804 65.1901 47.586L65.1353 47.5665C64.9547 47.3791 64.8096 47.2659 64.6645 47.1527C61.3321 45.2303 57.7206 44.4437 53.9041 44.7575C53.2583 44.8373 52.5382 44.9524 51.8924 45.0321C51.5598 45.0994 51.3015 45.1313 50.9689 45.1985L50.7654 45.2499L50.7884 45.0111C52.1308 38.2638 50.4338 32.5997 45.8072 28.0576C41.1611 23.5704 35.4101 22.0253 28.6994 23.5355L28.4959 23.5868L28.5577 23.2383C28.5737 23.3674 28.5737 23.3674 28.5931 23.3126ZM26.6027 34.1517C26.3632 32.2147 26.6243 30.0848 27.425 27.6522C27.4834 27.4877 27.616 27.2878 27.8195 27.2364C30.2839 26.3815 32.4248 26.091 34.3358 26.2747L34.6295 26.3171L34.5357 26.4073L26.6506 34.5392L26.6027 34.1517ZM56.8247 48.0156L48.791 56.2182L48.7979 55.8502C48.8014 55.6662 48.7695 55.408 48.7729 55.224C48.7035 54.0264 48.7279 52.7385 48.9522 51.5833C49.0369 50.996 49.1925 50.5572 49.2772 49.9699C49.3585 49.5665 49.5724 48.9633 49.9987 48.8057C52.2597 48.0022 54.3457 47.6923 56.3504 47.7857C56.4601 47.8246 56.5344 47.7892 56.5893 47.8086L56.883 47.851L56.8247 48.0156ZM48.1838 39.6425C48.3365 41.3018 48.2698 42.8834 47.8545 44.403C47.7962 44.5676 47.7927 44.7515 47.7344 44.9161C47.6761 45.0806 47.6531 45.3194 47.5948 45.4839C47.4941 45.9421 47.342 46.1969 47.1351 46.4322C46.815 46.8126 46.224 46.9118 45.6879 47.0304C45.4845 47.0817 45.3005 47.0782 45.1519 47.149C43.6533 47.5438 42.0486 47.7157 40.357 47.6098L40.0633 47.5674L40.157 47.4772L48.1165 39.31L48.1838 39.6425ZM45.0016 31.7232C45.9202 32.7897 46.5966 34.0173 47.1597 35.39C47.1951 35.4643 47.1562 35.574 47.1916 35.6483C47.1333 35.8128 47.0006 36.0127 46.9618 36.1224C45.591 37.5502 44.2396 38.9232 42.8883 40.2962L40.5412 42.7361C39.3968 43.8738 38.1392 45.1566 36.9364 46.4588C36.7295 46.6941 36.4323 46.8357 35.9934 46.6801C34.5866 46.1195 33.4221 45.398 32.4416 44.6799L32.2965 44.5667L32.3159 44.5119L44.8565 31.61L45.0016 31.7232ZM39.0479 27.2663C39.8867 27.6872 40.6513 28.1434 41.4901 28.5643L42.674 29.231L42.5608 29.3761L29.9071 42.4231L29.7815 42.2551C29.6204 42.0127 29.4238 41.6961 29.2628 41.4538C28.9052 40.8948 28.5121 40.2616 28.174 39.6478C27.4623 38.3459 27.4463 38.2168 28.4969 37.1694L30.5434 35.055C32.9454 32.6346 35.4057 30.0496 37.8272 27.5743C38.241 27.1037 38.5736 27.0364 39.0479 27.2663ZM25.5392 23.2176C25.4385 23.6758 25.2829 24.1145 25.1822 24.5727C25.1239 24.7373 24.9912 24.9372 24.7878 24.9885C22.4525 25.8275 20.3665 26.1374 18.3618 26.044C18.3069 26.0245 18.2521 26.0051 18.1972 25.9856C18.1424 25.9662 18.1424 25.9662 18.1424 25.9662L17.8486 25.9238L18.0361 25.7433L25.9018 17.6663L25.9143 17.9795C25.8948 18.0343 25.9497 18.0537 25.9303 18.1086C25.9462 18.2377 25.9622 18.3669 25.9782 18.496C26.099 19.897 25.9579 21.514 25.5392 23.2176Z" fill="#232323"/>
<line x1="77.4142" y1="1.41421" x2="47.3677" y2="31.4607" stroke="#232323" stroke-width="4"/>
<line x1="31.4611" y1="47.3693" x2="1.41456" y2="77.4158" stroke="#232323" stroke-width="4"/>
</svg>
